<svg xmlns="http://www.w3.org/2000/svg" width="1260" height="180"><rect width="100%" height="100%" fill="#20242b"/><text x="10" y="18" fill="white" font-family="sans-serif">FRONT</text><rect x="163.8" y="86.0" width="102.7" height="20.0" fill="#9bb7d4" fill-opacity=".55" stroke="#d7e6f5" stroke-width=".5"/><rect x="143.2" y="97.8" width="143.8" height="6.5" fill="#9bb7d4" fill-opacity=".55" stroke="#d7e6f5" stroke-width=".5"/><rect x="102.2" y="104.9" width="225.9" height="20.0" fill="#9bb7d4" fill-opacity=".55" stroke="#d7e6f5" stroke-width=".5"/><rect x="163.8" y="106.0" width="102.7" height="20.0" fill="#9bb7d4" fill-opacity=".55" stroke="#d7e6f5" stroke-width=".5"/><rect x="215.1" y="107.2" width="1.0" height="20.6" fill="#9bb7d4" fill-opacity=".55" stroke="#d7e6f5" stroke-width=".5"/><rect x="174.1" y="123.1" width="82.2" height="9.4" fill="#9bb7d4" fill-opacity=".55" stroke="#d7e6f5" stroke-width=".5"/><rect x="215.1" y="124.9" width="1.0" height="7.7" fill="#9bb7d4" fill-opacity=".55" stroke="#d7e6f5" stroke-width=".5"/><rect x="184.3" y="131.4" width="61.6" height="10.0" fill="#9bb7d4" fill-opacity=".55" stroke="#d7e6f5" stroke-width=".5"/><rect x="215.1" y="131.4" width="1.0" height="7.1" fill="#9bb7d4" fill-opacity=".55" stroke="#d7e6f5" stroke-width=".5"/><rect x="148.4" y="151.9" width="133.5" height="12.4" fill="#9bb7d4" fill-opacity=".55" stroke="#d7e6f5" stroke-width=".5"/><rect x="148.4" y="152.0" width="133.5" height="13.0" fill="#9bb7d4" fill-opacity=".55" stroke="#d7e6f5" stroke-width=".5"/><rect x="127.8" y="138.5" width="174.6" height="13.6" fill="#9bb7d4" fill-opacity=".55" stroke="#d7e6f5" stroke-width=".5"/><rect x="138.1" y="138.5" width="154.1" height="11.2" fill="#9bb7d4" fill-opacity=".55" stroke="#d7e6f5" stroke-width=".5"/><rect x="148.4" y="148.5" width="133.5" height="15.3" fill="#9bb7d4" fill-opacity=".55" stroke="#d7e6f5" stroke-width=".5"/><rect x="148.4" y="148.5" width="133.5" height="15.9" fill="#9bb7d4" fill-opacity=".55" stroke="#d7e6f5" stroke-width=".5"/><rect x="127.6" y="143.8" width="1.0" height="5.3" fill="#9bb7d4" fill-opacity=".55" stroke="#d7e6f5" stroke-width=".5"/><rect x="302.6" y="143.8" width="1.0" height="5.3" fill="#9bb7d4" fill-opacity=".55" stroke="#d7e6f5" stroke-width=".5"/><rect x="50.8" y="120.2" width="41.1" height="2.9" fill="#9bb7d4" fill-opacity=".55" stroke="#d7e6f5" stroke-width=".5"/><rect x="50.8" y="111.3" width="41.1" height="8.8" fill="#9bb7d4" fill-opacity=".55" stroke="#d7e6f5" stroke-width=".5"/><rect x="55.9" y="120.8" width="30.8" height="11.2" fill="#9bb7d4" fill-opacity=".55" stroke="#d7e6f5" stroke-width=".5"/><rect x="20.0" y="130.8" width="113.0" height="1.8" fill="#9bb7d4" fill-opacity=".55" stroke="#d7e6f5" stroke-width=".5"/><rect x="20.0" y="130.8" width="30.8" height="1.8" fill="#9bb7d4" fill-opacity=".55" stroke="#d7e6f5" stroke-width=".5"/><rect x="35.4" y="130.8" width="1.0" height="1.8" fill="#9bb7d4" fill-opacity=".55" stroke="#d7e6f5" stroke-width=".5"/><rect x="61.1" y="130.8" width="30.8" height="1.8" fill="#9bb7d4" fill-opacity=".55" stroke="#d7e6f5" stroke-width=".5"/><rect x="76.5" y="130.8" width="1.0" height="1.8" fill="#9bb7d4" fill-opacity=".55" stroke="#d7e6f5" stroke-width=".5"/><rect x="102.2" y="130.8" width="30.8" height="1.8" fill="#9bb7d4" fill-opacity=".55" stroke="#d7e6f5" stroke-width=".5"/><rect x="117.6" y="130.8" width="1.0" height="1.8" fill="#9bb7d4" fill-opacity=".55" stroke="#d7e6f5" stroke-width=".5"/><rect x="328.1" y="120.2" width="41.1" height="2.9" fill="#9bb7d4" fill-opacity=".55" stroke="#d7e6f5" stroke-width=".5"/><rect x="328.1" y="111.3" width="41.1" height="8.8" fill="#9bb7d4" fill-opacity=".55" stroke="#d7e6f5" stroke-width=".5"/><rect x="328.1" y="120.8" width="30.8" height="11.2" fill="#9bb7d4" fill-opacity=".55" stroke="#d7e6f5" stroke-width=".5"/><rect x="287.0" y="130.2" width="113.0" height="1.8" fill="#9bb7d4" fill-opacity=".55" stroke="#d7e6f5" stroke-width=".5"/><rect x="369.2" y="130.2" width="30.8" height="1.8" fill="#9bb7d4" fill-opacity=".55" stroke="#d7e6f5" stroke-width=".5"/><rect x="384.6" y="130.2" width="1.0" height="1.8" fill="#9bb7d4" fill-opacity=".55" stroke="#d7e6f5" stroke-width=".5"/><rect x="328.1" y="130.2" width="30.8" height="1.8" fill="#9bb7d4" fill-opacity=".55" stroke="#d7e6f5" stroke-width=".5"/><rect x="343.5" y="130.2" width="1.0" height="1.8" fill="#9bb7d4" fill-opacity=".55" stroke="#d7e6f5" stroke-width=".5"/><rect x="287.0" y="130.2" width="30.8" height="1.8" fill="#9bb7d4" fill-opacity=".55" stroke="#d7e6f5" stroke-width=".5"/><rect x="302.4" y="130.2" width="1.0" height="1.8" fill="#9bb7d4" fill-opacity=".55" stroke="#d7e6f5" stroke-width=".5"/><rect x="215.1" y="86.6" width="1.0" height="20.6" fill="#9bb7d4" fill-opacity=".55" stroke="#d7e6f5" stroke-width=".5"/><rect x="184.3" y="71.9" width="82.2" height="14.7" fill="#9bb7d4" fill-opacity=".55" stroke="#d7e6f5" stroke-width=".5"/><rect x="225.4" y="71.9" width="1.0" height="14.7" fill="#9bb7d4" fill-opacity=".55" stroke="#d7e6f5" stroke-width=".5"/><rect x="225.5" y="71.9" width="1.0" height="14.7" fill="#9bb7d4" fill-opacity=".55" stroke="#d7e6f5" stroke-width=".5"/><rect x="194.6" y="52.4" width="61.6" height="20.0" fill="#9bb7d4" fill-opacity=".55" stroke="#d7e6f5" stroke-width=".5"/><rect x="225.4" y="52.4" width="1.0" height="19.5" fill="#9bb7d4" fill-opacity=".55" stroke="#d7e6f5" stroke-width=".5"/><rect x="204.9" y="35.3" width="41.1" height="20.0" fill="#9bb7d4" fill-opacity=".55" stroke="#d7e6f5" stroke-width=".5"/><rect x="225.4" y="35.3" width="1.0" height="17.1" fill="#9bb7d4" fill-opacity=".55" stroke="#d7e6f5" stroke-width=".5"/><rect x="215.1" y="20.0" width="20.5" height="16.5" fill="#9bb7d4" fill-opacity=".55" stroke="#d7e6f5" stroke-width=".5"/><rect x="225.4" y="20.0" width="1.0" height="15.3" fill="#9bb7d4" fill-opacity=".55" stroke="#d7e6f5" stroke-width=".5"/><rect x="71.4" y="93.3" width="82.2" height="3.5" fill="#9bb7d4" fill-opacity=".55" stroke="#d7e6f5" stroke-width=".5"/><rect x="112.4" y="89.2" width="1.0" height="11.8" fill="#9bb7d4" fill-opacity=".55" stroke="#d7e6f5" stroke-width=".5"/><rect x="81.6" y="93.6" width="61.6" height="2.9" fill="#9bb7d4" fill-opacity=".55" stroke="#d7e6f5" stroke-width=".5"/><rect x="91.9" y="94.6" width="41.1" height="2.4" fill="#9bb7d4" fill-opacity=".55" stroke="#d7e6f5" stroke-width=".5"/><rect x="50.8" y="92.1" width="123.2" height="8.3" fill="#9bb7d4" fill-opacity=".55" stroke="#d7e6f5" stroke-width=".5"/><rect x="143.2" y="100.4" width="30.8" height="2.4" fill="#9bb7d4" fill-opacity=".55" stroke="#d7e6f5" stroke-width=".5"/><rect x="158.6" y="101.6" width="1.0" height="3.5" fill="#9bb7d4" fill-opacity=".55" stroke="#d7e6f5" stroke-width=".5"/><rect x="97.0" y="100.4" width="30.8" height="2.9" fill="#9bb7d4" fill-opacity=".55" stroke="#d7e6f5" stroke-width=".5"/><rect x="112.4" y="101.6" width="1.0" height="4.1" fill="#9bb7d4" fill-opacity=".55" stroke="#d7e6f5" stroke-width=".5"/><rect x="50.8" y="100.4" width="30.8" height="2.4" fill="#9bb7d4" fill-opacity=".55" stroke="#d7e6f5" stroke-width=".5"/><rect x="66.2" y="101.6" width="1.0" height="3.5" fill="#9bb7d4" fill-opacity=".55" stroke="#d7e6f5" stroke-width=".5"/><rect x="306.6" y="100.5" width="82.2" height="3.5" fill="#9bb7d4" fill-opacity=".55" stroke="#d7e6f5" stroke-width=".5"/><rect x="347.7" y="96.4" width="1.0" height="11.8" fill="#9bb7d4" fill-opacity=".55" stroke="#d7e6f5" stroke-width=".5"/><rect x="307.0" y="97.4" width="61.6" height="2.9" fill="#9bb7d4" fill-opacity=".55" stroke="#d7e6f5" stroke-width=".5"/><rect x="310.2" y="98.6" width="41.1" height="2.4" fill="#9bb7d4" fill-opacity=".55" stroke="#d7e6f5" stroke-width=".5"/><rect x="269.1" y="96.1" width="123.2" height="8.3" fill="#9bb7d4" fill-opacity=".55" stroke="#d7e6f5" stroke-width=".5"/><rect x="269.1" y="104.4" width="30.8" height="2.4" fill="#9bb7d4" fill-opacity=".55" stroke="#d7e6f5" stroke-width=".5"/><rect x="284.5" y="105.6" width="1.0" height="3.5" fill="#9bb7d4" fill-opacity=".55" stroke="#d7e6f5" stroke-width=".5"/><rect x="315.3" y="104.4" width="30.8" height="2.9" fill="#9bb7d4" fill-opacity=".55" stroke="#d7e6f5" stroke-width=".5"/><rect x="330.7" y="105.6" width="1.0" height="4.1" fill="#9bb7d4" fill-opacity=".55" stroke="#d7e6f5" stroke-width=".5"/><rect x="361.5" y="104.4" width="30.8" height="2.4" fill="#9bb7d4" fill-opacity=".55" stroke="#d7e6f5" stroke-width=".5"/><rect x="376.9" y="105.6" width="1.0" height="3.5" fill="#9bb7d4" fill-opacity=".55" stroke="#d7e6f5" stroke-width=".5"/><text x="430" y="18" fill="white" font-family="sans-serif">SIDE</text><rect x="594.5" y="58.9" width="52.5" height="13.4" fill="#9bb7d4" fill-opacity=".55" stroke="#d7e6f5" stroke-width=".5"/><rect x="599.1" y="64.3" width="17.0" height="38.9" fill="#9bb7d4" fill-opacity=".55" stroke="#d7e6f5" stroke-width=".5"/><rect x="545.1" y="64.3" width="52.5" height="38.9" fill="#9bb7d4" fill-opacity=".55" stroke="#d7e6f5" stroke-width=".5"/><rect x="542.0" y="58.9" width="52.5" height="13.4" fill="#9bb7d4" fill-opacity=".55" stroke="#d7e6f5" stroke-width=".5"/><rect x="537.3" y="20.0" width="54.1" height="45.6" fill="#9bb7d4" fill-opacity=".55" stroke="#d7e6f5" stroke-width=".5"/><rect x="525.0" y="58.9" width="24.7" height="13.4" fill="#9bb7d4" fill-opacity=".55" stroke="#d7e6f5" stroke-width=".5"/><rect x="525.0" y="48.2" width="20.1" height="10.7" fill="#9bb7d4" fill-opacity=".55" stroke="#d7e6f5" stroke-width=".5"/><rect x="501.8" y="60.3" width="26.3" height="10.7" fill="#9bb7d4" fill-opacity=".55" stroke="#d7e6f5" stroke-width=".5"/><rect x="509.5" y="52.2" width="18.5" height="8.1" fill="#9bb7d4" fill-opacity=".55" stroke="#d7e6f5" stroke-width=".5"/><rect x="441.9" y="76.4" width="32.4" height="2.7" fill="#9bb7d4" fill-opacity=".55" stroke="#d7e6f5" stroke-width=".5"/><rect x="440.0" y="61.6" width="34.0" height="14.8" fill="#9bb7d4" fill-opacity=".55" stroke="#d7e6f5" stroke-width=".5"/><rect x="474.0" y="58.9" width="35.5" height="17.5" fill="#9bb7d4" fill-opacity=".55" stroke="#d7e6f5" stroke-width=".5"/><rect x="480.2" y="76.4" width="29.4" height="6.7" fill="#9bb7d4" fill-opacity=".55" stroke="#d7e6f5" stroke-width=".5"/><rect x="443.1" y="73.7" width="40.2" height="2.7" fill="#9bb7d4" fill-opacity=".55" stroke="#d7e6f5" stroke-width=".5"/><rect x="441.5" y="76.4" width="41.7" height="6.7" fill="#9bb7d4" fill-opacity=".55" stroke="#d7e6f5" stroke-width=".5"/><rect x="481.7" y="60.3" width="13.9" height="8.1" fill="#9bb7d4" fill-opacity=".55" stroke="#d7e6f5" stroke-width=".5"/><rect x="481.7" y="60.3" width="13.9" height="8.1" fill="#9bb7d4" fill-opacity=".55" stroke="#d7e6f5" stroke-width=".5"/><rect x="549.7" y="81.8" width="7.7" height="26.9" fill="#9bb7d4" fill-opacity=".55" stroke="#d7e6f5" stroke-width=".5"/><rect x="557.4" y="81.8" width="23.2" height="6.7" fill="#9bb7d4" fill-opacity=".55" stroke="#d7e6f5" stroke-width=".5"/><rect x="526.5" y="101.9" width="29.4" height="6.7" fill="#9bb7d4" fill-opacity=".55" stroke="#d7e6f5" stroke-width=".5"/><rect x="525.0" y="105.9" width="4.6" height="12.1" fill="#9bb7d4" fill-opacity=".55" stroke="#d7e6f5" stroke-width=".5"/><rect x="525.0" y="118.0" width="4.6" height="6.7" fill="#9bb7d4" fill-opacity=".55" stroke="#d7e6f5" stroke-width=".5"/><rect x="525.0" y="122.0" width="4.6" height="8.1" fill="#9bb7d4" fill-opacity=".55" stroke="#d7e6f5" stroke-width=".5"/><rect x="525.0" y="118.0" width="4.6" height="9.4" fill="#9bb7d4" fill-opacity=".55" stroke="#d7e6f5" stroke-width=".5"/><rect x="525.0" y="124.7" width="4.6" height="8.1" fill="#9bb7d4" fill-opacity=".55" stroke="#d7e6f5" stroke-width=".5"/><rect x="525.0" y="118.0" width="4.6" height="6.7" fill="#9bb7d4" fill-opacity=".55" stroke="#d7e6f5" stroke-width=".5"/><rect x="525.0" y="122.0" width="4.6" height="8.1" fill="#9bb7d4" fill-opacity=".55" stroke="#d7e6f5" stroke-width=".5"/><rect x="549.7" y="81.8" width="7.7" height="26.9" fill="#9bb7d4" fill-opacity=".55" stroke="#d7e6f5" stroke-width=".5"/><rect x="557.4" y="81.8" width="23.2" height="6.7" fill="#9bb7d4" fill-opacity=".55" stroke="#d7e6f5" stroke-width=".5"/><rect x="526.5" y="101.9" width="29.4" height="6.7" fill="#9bb7d4" fill-opacity=".55" stroke="#d7e6f5" stroke-width=".5"/><rect x="526.5" y="104.6" width="4.6" height="12.1" fill="#9bb7d4" fill-opacity=".55" stroke="#d7e6f5" stroke-width=".5"/><rect x="526.5" y="116.7" width="4.6" height="6.7" fill="#9bb7d4" fill-opacity=".55" stroke="#d7e6f5" stroke-width=".5"/><rect x="526.5" y="120.7" width="4.6" height="8.1" fill="#9bb7d4" fill-opacity=".55" stroke="#d7e6f5" stroke-width=".5"/><rect x="526.5" y="116.7" width="4.6" height="9.4" fill="#9bb7d4" fill-opacity=".55" stroke="#d7e6f5" stroke-width=".5"/><rect x="526.5" y="123.4" width="4.6" height="8.1" fill="#9bb7d4" fill-opacity=".55" stroke="#d7e6f5" stroke-width=".5"/><rect x="526.5" y="116.7" width="4.6" height="6.7" fill="#9bb7d4" fill-opacity=".55" stroke="#d7e6f5" stroke-width=".5"/><rect x="526.5" y="120.7" width="4.6" height="8.1" fill="#9bb7d4" fill-opacity=".55" stroke="#d7e6f5" stroke-width=".5"/><rect x="591.4" y="20.0" width="54.1" height="38.9" fill="#9bb7d4" fill-opacity=".55" stroke="#d7e6f5" stroke-width=".5"/><rect x="645.4" y="58.0" width="38.6" height="13.4" fill="#9bb7d4" fill-opacity=".55" stroke="#d7e6f5" stroke-width=".5"/><rect x="645.4" y="71.4" width="38.6" height="8.1" fill="#9bb7d4" fill-opacity=".55" stroke="#d7e6f5" stroke-width=".5"/><rect x="645.4" y="45.9" width="38.6" height="12.1" fill="#9bb7d4" fill-opacity=".55" stroke="#d7e6f5" stroke-width=".5"/><rect x="682.5" y="59.3" width="52.5" height="10.7" fill="#9bb7d4" fill-opacity=".55" stroke="#d7e6f5" stroke-width=".5"/><rect x="684.0" y="70.1" width="51.0" height="8.1" fill="#9bb7d4" fill-opacity=".55" stroke="#d7e6f5" stroke-width=".5"/><rect x="727.3" y="60.7" width="52.5" height="8.1" fill="#9bb7d4" fill-opacity=".55" stroke="#d7e6f5" stroke-width=".5"/><rect x="735.0" y="68.7" width="44.8" height="8.1" fill="#9bb7d4" fill-opacity=".55" stroke="#d7e6f5" stroke-width=".5"/><rect x="776.7" y="62.0" width="43.3" height="5.4" fill="#9bb7d4" fill-opacity=".55" stroke="#d7e6f5" stroke-width=".5"/><rect x="779.8" y="67.4" width="40.2" height="5.4" fill="#9bb7d4" fill-opacity=".55" stroke="#d7e6f5" stroke-width=".5"/><rect x="618.6" y="55.9" width="9.3" height="37.6" fill="#9bb7d4" fill-opacity=".55" stroke="#d7e6f5" stroke-width=".5"/><rect x="607.8" y="46.5" width="30.9" height="20.1" fill="#9bb7d4" fill-opacity=".55" stroke="#d7e6f5" stroke-width=".5"/><rect x="619.4" y="94.9" width="7.7" height="28.2" fill="#9bb7d4" fill-opacity=".55" stroke="#d7e6f5" stroke-width=".5"/><rect x="618.3" y="117.7" width="6.2" height="28.2" fill="#9bb7d4" fill-opacity=".55" stroke="#d7e6f5" stroke-width=".5"/><rect x="609.3" y="141.9" width="21.6" height="6.7" fill="#9bb7d4" fill-opacity=".55" stroke="#d7e6f5" stroke-width=".5"/><rect x="603.1" y="143.2" width="6.2" height="5.4" fill="#9bb7d4" fill-opacity=".55" stroke="#d7e6f5" stroke-width=".5"/><rect x="597.0" y="143.2" width="9.3" height="4.0" fill="#9bb7d4" fill-opacity=".55" stroke="#d7e6f5" stroke-width=".5"/><rect x="601.6" y="143.2" width="7.7" height="5.4" fill="#9bb7d4" fill-opacity=".55" stroke="#d7e6f5" stroke-width=".5"/><rect x="595.4" y="143.2" width="10.8" height="4.0" fill="#9bb7d4" fill-opacity=".55" stroke="#d7e6f5" stroke-width=".5"/><rect x="603.1" y="143.2" width="6.2" height="5.4" fill="#9bb7d4" fill-opacity=".55" stroke="#d7e6f5" stroke-width=".5"/><rect x="597.0" y="143.2" width="9.3" height="4.0" fill="#9bb7d4" fill-opacity=".55" stroke="#d7e6f5" stroke-width=".5"/><rect x="599.7" y="73.2" width="9.3" height="37.6" fill="#9bb7d4" fill-opacity=".55" stroke="#d7e6f5" stroke-width=".5"/><rect x="588.9" y="63.8" width="30.9" height="20.1" fill="#9bb7d4" fill-opacity=".55" stroke="#d7e6f5" stroke-width=".5"/><rect x="609.5" y="112.8" width="7.7" height="28.2" fill="#9bb7d4" fill-opacity=".55" stroke="#d7e6f5" stroke-width=".5"/><rect x="607.8" y="131.4" width="6.2" height="28.2" fill="#9bb7d4" fill-opacity=".55" stroke="#d7e6f5" stroke-width=".5"/><rect x="598.8" y="158.3" width="21.6" height="6.7" fill="#9bb7d4" fill-opacity=".55" stroke="#d7e6f5" stroke-width=".5"/><rect x="592.7" y="159.6" width="6.2" height="5.4" fill="#9bb7d4" fill-opacity=".55" stroke="#d7e6f5" stroke-width=".5"/><rect x="586.5" y="159.6" width="9.3" height="4.0" fill="#9bb7d4" fill-opacity=".55" stroke="#d7e6f5" stroke-width=".5"/><rect x="591.1" y="159.6" width="7.7" height="5.4" fill="#9bb7d4" fill-opacity=".55" stroke="#d7e6f5" stroke-width=".5"/><rect x="584.9" y="159.6" width="10.8" height="4.0" fill="#9bb7d4" fill-opacity=".55" stroke="#d7e6f5" stroke-width=".5"/><rect x="592.7" y="159.6" width="6.2" height="5.4" fill="#9bb7d4" fill-opacity=".55" stroke="#d7e6f5" stroke-width=".5"/><rect x="586.5" y="159.6" width="9.3" height="4.0" fill="#9bb7d4" fill-opacity=".55" stroke="#d7e6f5" stroke-width=".5"/><text x="850" y="18" fill="white" font-family="sans-serif">TOP</text><rect x="1003.8" y="58.9" width="102.7" height="13.4" fill="#9bb7d4" fill-opacity=".55" stroke="#d7e6f5" stroke-width=".5"/><rect x="983.2" y="64.3" width="143.8" height="38.9" fill="#9bb7d4" fill-opacity=".55" stroke="#d7e6f5" stroke-width=".5"/><rect x="942.2" y="64.3" width="225.9" height="38.9" fill="#9bb7d4" fill-opacity=".55" stroke="#d7e6f5" stroke-width=".5"/><rect x="1003.8" y="58.9" width="102.7" height="13.4" fill="#9bb7d4" fill-opacity=".55" stroke="#d7e6f5" stroke-width=".5"/><rect x="1055.1" y="20.0" width="1.0" height="45.6" fill="#9bb7d4" fill-opacity=".55" stroke="#d7e6f5" stroke-width=".5"/><rect x="1014.1" y="58.9" width="82.2" height="13.4" fill="#9bb7d4" fill-opacity=".55" stroke="#d7e6f5" stroke-width=".5"/><rect x="1055.1" y="48.2" width="1.0" height="10.7" fill="#9bb7d4" fill-opacity=".55" stroke="#d7e6f5" stroke-width=".5"/><rect x="1024.3" y="60.3" width="61.6" height="10.7" fill="#9bb7d4" fill-opacity=".55" stroke="#d7e6f5" stroke-width=".5"/><rect x="1055.1" y="52.2" width="1.0" height="8.1" fill="#9bb7d4" fill-opacity=".55" stroke="#d7e6f5" stroke-width=".5"/><rect x="988.4" y="76.4" width="133.5" height="2.7" fill="#9bb7d4" fill-opacity=".55" stroke="#d7e6f5" stroke-width=".5"/><rect x="988.4" y="61.6" width="133.5" height="14.8" fill="#9bb7d4" fill-opacity=".55" stroke="#d7e6f5" stroke-width=".5"/><rect x="967.8" y="58.9" width="174.6" height="17.5" fill="#9bb7d4" fill-opacity=".55" stroke="#d7e6f5" stroke-width=".5"/><rect x="978.1" y="76.4" width="154.1" height="6.7" fill="#9bb7d4" fill-opacity=".55" stroke="#d7e6f5" stroke-width=".5"/><rect x="988.4" y="73.7" width="133.5" height="2.7" fill="#9bb7d4" fill-opacity=".55" stroke="#d7e6f5" stroke-width=".5"/><rect x="988.4" y="76.4" width="133.5" height="6.7" fill="#9bb7d4" fill-opacity=".55" stroke="#d7e6f5" stroke-width=".5"/><rect x="967.6" y="60.3" width="1.0" height="8.1" fill="#9bb7d4" fill-opacity=".55" stroke="#d7e6f5" stroke-width=".5"/><rect x="1142.6" y="60.3" width="1.0" height="8.1" fill="#9bb7d4" fill-opacity=".55" stroke="#d7e6f5" stroke-width=".5"/><rect x="890.8" y="81.8" width="41.1" height="26.9" fill="#9bb7d4" fill-opacity=".55" stroke="#d7e6f5" stroke-width=".5"/><rect x="890.8" y="81.8" width="41.1" height="6.7" fill="#9bb7d4" fill-opacity=".55" stroke="#d7e6f5" stroke-width=".5"/><rect x="895.9" y="101.9" width="30.8" height="6.7" fill="#9bb7d4" fill-opacity=".55" stroke="#d7e6f5" stroke-width=".5"/><rect x="860.0" y="105.9" width="113.0" height="12.1" fill="#9bb7d4" fill-opacity=".55" stroke="#d7e6f5" stroke-width=".5"/><rect x="860.0" y="118.0" width="30.8" height="6.7" fill="#9bb7d4" fill-opacity=".55" stroke="#d7e6f5" stroke-width=".5"/><rect x="875.4" y="122.0" width="1.0" height="8.1" fill="#9bb7d4" fill-opacity=".55" stroke="#d7e6f5" stroke-width=".5"/><rect x="901.1" y="118.0" width="30.8" height="9.4" fill="#9bb7d4" fill-opacity=".55" stroke="#d7e6f5" stroke-width=".5"/><rect x="916.5" y="124.7" width="1.0" height="8.1" fill="#9bb7d4" fill-opacity=".55" stroke="#d7e6f5" stroke-width=".5"/><rect x="942.2" y="118.0" width="30.8" height="6.7" fill="#9bb7d4" fill-opacity=".55" stroke="#d7e6f5" stroke-width=".5"/><rect x="957.6" y="122.0" width="1.0" height="8.1" fill="#9bb7d4" fill-opacity=".55" stroke="#d7e6f5" stroke-width=".5"/><rect x="1168.1" y="81.8" width="41.1" height="26.9" fill="#9bb7d4" fill-opacity=".55" stroke="#d7e6f5" stroke-width=".5"/><rect x="1168.1" y="81.8" width="41.1" height="6.7" fill="#9bb7d4" fill-opacity=".55" stroke="#d7e6f5" stroke-width=".5"/><rect x="1168.1" y="101.9" width="30.8" height="6.7" fill="#9bb7d4" fill-opacity=".55" stroke="#d7e6f5" stroke-width=".5"/><rect x="1127.0" y="104.6" width="113.0" height="12.1" fill="#9bb7d4" fill-opacity=".55" stroke="#d7e6f5" stroke-width=".5"/><rect x="1209.2" y="116.7" width="30.8" height="6.7" fill="#9bb7d4" fill-opacity=".55" stroke="#d7e6f5" stroke-width=".5"/><rect x="1224.6" y="120.7" width="1.0" height="8.1" fill="#9bb7d4" fill-opacity=".55" stroke="#d7e6f5" stroke-width=".5"/><rect x="1168.1" y="116.7" width="30.8" height="9.4" fill="#9bb7d4" fill-opacity=".55" stroke="#d7e6f5" stroke-width=".5"/><rect x="1183.5" y="123.4" width="1.0" height="8.1" fill="#9bb7d4" fill-opacity=".55" stroke="#d7e6f5" stroke-width=".5"/><rect x="1127.0" y="116.7" width="30.8" height="6.7" fill="#9bb7d4" fill-opacity=".55" stroke="#d7e6f5" stroke-width=".5"/><rect x="1142.4" y="120.7" width="1.0" height="8.1" fill="#9bb7d4" fill-opacity=".55" stroke="#d7e6f5" stroke-width=".5"/><rect x="1055.1" y="20.0" width="1.0" height="38.9" fill="#9bb7d4" fill-opacity=".55" stroke="#d7e6f5" stroke-width=".5"/><rect x="1024.3" y="58.0" width="82.2" height="13.4" fill="#9bb7d4" fill-opacity=".55" stroke="#d7e6f5" stroke-width=".5"/><rect x="1065.4" y="71.4" width="1.0" height="8.1" fill="#9bb7d4" fill-opacity=".55" stroke="#d7e6f5" stroke-width=".5"/><rect x="1065.5" y="45.9" width="1.0" height="12.1" fill="#9bb7d4" fill-opacity=".55" stroke="#d7e6f5" stroke-width=".5"/><rect x="1034.6" y="59.3" width="61.6" height="10.7" fill="#9bb7d4" fill-opacity=".55" stroke="#d7e6f5" stroke-width=".5"/><rect x="1065.4" y="70.1" width="1.0" height="8.1" fill="#9bb7d4" fill-opacity=".55" stroke="#d7e6f5" stroke-width=".5"/><rect x="1044.9" y="60.7" width="41.1" height="8.1" fill="#9bb7d4" fill-opacity=".55" stroke="#d7e6f5" stroke-width=".5"/><rect x="1065.4" y="68.7" width="1.0" height="8.1" fill="#9bb7d4" fill-opacity=".55" stroke="#d7e6f5" stroke-width=".5"/><rect x="1055.1" y="62.0" width="20.5" height="5.4" fill="#9bb7d4" fill-opacity=".55" stroke="#d7e6f5" stroke-width=".5"/><rect x="1065.4" y="67.4" width="1.0" height="5.4" fill="#9bb7d4" fill-opacity=".55" stroke="#d7e6f5" stroke-width=".5"/><rect x="911.4" y="55.9" width="82.2" height="37.6" fill="#9bb7d4" fill-opacity=".55" stroke="#d7e6f5" stroke-width=".5"/><rect x="952.4" y="46.5" width="1.0" height="20.1" fill="#9bb7d4" fill-opacity=".55" stroke="#d7e6f5" stroke-width=".5"/><rect x="921.6" y="94.9" width="61.6" height="28.2" fill="#9bb7d4" fill-opacity=".55" stroke="#d7e6f5" stroke-width=".5"/><rect x="931.9" y="117.7" width="41.1" height="28.2" fill="#9bb7d4" fill-opacity=".55" stroke="#d7e6f5" stroke-width=".5"/><rect x="890.8" y="141.9" width="123.2" height="6.7" fill="#9bb7d4" fill-opacity=".55" stroke="#d7e6f5" stroke-width=".5"/><rect x="983.2" y="143.2" width="30.8" height="5.4" fill="#9bb7d4" fill-opacity=".55" stroke="#d7e6f5" stroke-width=".5"/><rect x="998.6" y="143.2" width="1.0" height="4.0" fill="#9bb7d4" fill-opacity=".55" stroke="#d7e6f5" stroke-width=".5"/><rect x="937.0" y="143.2" width="30.8" height="5.4" fill="#9bb7d4" fill-opacity=".55" stroke="#d7e6f5" stroke-width=".5"/><rect x="952.4" y="143.2" width="1.0" height="4.0" fill="#9bb7d4" fill-opacity=".55" stroke="#d7e6f5" stroke-width=".5"/><rect x="890.8" y="143.2" width="30.8" height="5.4" fill="#9bb7d4" fill-opacity=".55" stroke="#d7e6f5" stroke-width=".5"/><rect x="906.2" y="143.2" width="1.0" height="4.0" fill="#9bb7d4" fill-opacity=".55" stroke="#d7e6f5" stroke-width=".5"/><rect x="1146.6" y="73.2" width="82.2" height="37.6" fill="#9bb7d4" fill-opacity=".55" stroke="#d7e6f5" stroke-width=".5"/><rect x="1187.7" y="63.8" width="1.0" height="20.1" fill="#9bb7d4" fill-opacity=".55" stroke="#d7e6f5" stroke-width=".5"/><rect x="1147.0" y="112.8" width="61.6" height="28.2" fill="#9bb7d4" fill-opacity=".55" stroke="#d7e6f5" stroke-width=".5"/><rect x="1150.2" y="131.4" width="41.1" height="28.2" fill="#9bb7d4" fill-opacity=".55" stroke="#d7e6f5" stroke-width=".5"/><rect x="1109.1" y="158.3" width="123.2" height="6.7" fill="#9bb7d4" fill-opacity=".55" stroke="#d7e6f5" stroke-width=".5"/><rect x="1109.1" y="159.6" width="30.8" height="5.4" fill="#9bb7d4" fill-opacity=".55" stroke="#d7e6f5" stroke-width=".5"/><rect x="1124.5" y="159.6" width="1.0" height="4.0" fill="#9bb7d4" fill-opacity=".55" stroke="#d7e6f5" stroke-width=".5"/><rect x="1155.3" y="159.6" width="30.8" height="5.4" fill="#9bb7d4" fill-opacity=".55" stroke="#d7e6f5" stroke-width=".5"/><rect x="1170.7" y="159.6" width="1.0" height="4.0" fill="#9bb7d4" fill-opacity=".55" stroke="#d7e6f5" stroke-width=".5"/><rect x="1201.5" y="159.6" width="30.8" height="5.4" fill="#9bb7d4" fill-opacity=".55" stroke="#d7e6f5" stroke-width=".5"/><rect x="1216.9" y="159.6" width="1.0" height="4.0" fill="#9bb7d4" fill-opacity=".55" stroke="#d7e6f5" stroke-width=".5"/></svg>